<svg width="403" height="403" viewBox="0 0 403 403" fill="none" xmlns="http://www.w3.org/2000/svg">
<mask id="path-1-inside-1_199_129" fill="white">
<path fill-rule="evenodd" clip-rule="evenodd" d="M201.5 403C312.785 403 403 312.785 403 201.5C403 90.2146 312.785 0 201.5 0C90.2146 0 0 90.2146 0 201.5C0 312.785 90.2146 403 201.5 403ZM199.392 307.73C258.294 307.73 306.044 259.981 306.044 201.078C306.044 142.176 258.294 94.4268 199.392 94.4268C140.49 94.4268 92.7404 142.176 92.7404 201.078C92.7404 259.981 140.49 307.73 199.392 307.73Z"/>
</mask>
<path fill-rule="evenodd" clip-rule="evenodd" d="M201.5 403C312.785 403 403 312.785 403 201.5C403 90.2146 312.785 0 201.5 0C90.2146 0 0 90.2146 0 201.5C0 312.785 90.2146 403 201.5 403ZM199.392 307.73C258.294 307.73 306.044 259.981 306.044 201.078C306.044 142.176 258.294 94.4268 199.392 94.4268C140.49 94.4268 92.7404 142.176 92.7404 201.078C92.7404 259.981 140.49 307.73 199.392 307.73Z" fill="#552CB8"/>
<path d="M402 201.5C402 312.233 312.233 402 201.5 402V404C313.338 404 404 313.338 404 201.5H402ZM201.5 1C312.233 1 402 90.7669 402 201.5H404C404 89.6623 313.338 -1 201.5 -1V1ZM1 201.5C1 90.7669 90.7669 1 201.5 1V-1C89.6623 -1 -1 89.6623 -1 201.5H1ZM201.5 402C90.7669 402 1 312.233 1 201.5H-1C-1 313.338 89.6623 404 201.5 404V402ZM305.044 201.078C305.044 259.428 257.742 306.73 199.392 306.73V308.73C258.846 308.73 307.044 260.533 307.044 201.078H305.044ZM199.392 95.4268C257.742 95.4268 305.044 142.729 305.044 201.078H307.044C307.044 141.624 258.846 93.4268 199.392 93.4268V95.4268ZM93.7404 201.078C93.7404 142.729 141.042 95.4268 199.392 95.4268V93.4268C139.938 93.4268 91.7404 141.624 91.7404 201.078H93.7404ZM199.392 306.73C141.042 306.73 93.7404 259.428 93.7404 201.078H91.7404C91.7404 260.533 139.938 308.73 199.392 308.73V306.73Z" fill="black" mask="url(#path-1-inside-1_199_129)"/>
</svg>
