<svg width="308" height="308" viewBox="0 0 308 308" fill="none" xmlns="http://www.w3.org/2000/svg">
<mask id="path-1-inside-1_201_140" fill="white">
<path fill-rule="evenodd" clip-rule="evenodd" d="M154 308C239.052 308 308 239.052 308 154C308 68.9482 239.052 0 154 0C68.9482 0 0 68.9482 0 154C0 239.052 68.9482 308 154 308ZM152.389 235.188C197.406 235.188 233.899 198.695 233.899 153.678C233.899 108.661 197.406 72.1674 152.389 72.1674C107.372 72.1674 70.8784 108.661 70.8784 153.678C70.8784 198.695 107.372 235.188 152.389 235.188Z"/>
</mask>
<path fill-rule="evenodd" clip-rule="evenodd" d="M154 308C239.052 308 308 239.052 308 154C308 68.9482 239.052 0 154 0C68.9482 0 0 68.9482 0 154C0 239.052 68.9482 308 154 308ZM152.389 235.188C197.406 235.188 233.899 198.695 233.899 153.678C233.899 108.661 197.406 72.1674 152.389 72.1674C107.372 72.1674 70.8784 108.661 70.8784 153.678C70.8784 198.695 107.372 235.188 152.389 235.188Z" fill="#552CB8"/>
<path d="M307 154C307 238.5 238.5 307 154 307V309C239.604 309 309 239.604 309 154H307ZM154 1C238.5 1 307 69.5004 307 154H309C309 68.3959 239.604 -1 154 -1V1ZM1 154C1 69.5004 69.5004 1 154 1V-1C68.3959 -1 -1 68.3959 -1 154H1ZM154 307C69.5004 307 1 238.5 1 154H-1C-1 239.604 68.3959 309 154 309V307ZM232.899 153.678C232.899 198.143 196.854 234.188 152.389 234.188V236.188C197.958 236.188 234.899 199.247 234.899 153.678H232.899ZM152.389 73.1674C196.854 73.1674 232.899 109.213 232.899 153.678H234.899C234.899 108.109 197.958 71.1674 152.389 71.1674V73.1674ZM71.8784 153.678C71.8784 109.213 107.924 73.1674 152.389 73.1674V71.1674C106.82 71.1674 69.8784 108.109 69.8784 153.678H71.8784ZM152.389 234.188C107.924 234.188 71.8784 198.143 71.8784 153.678H69.8784C69.8784 199.247 106.82 236.188 152.389 236.188V234.188Z" fill="black" mask="url(#path-1-inside-1_201_140)"/>
</svg>
