<svg width="339" height="196" viewBox="0 0 339 196" fill="none" xmlns="http://www.w3.org/2000/svg">
<mask id="path-1-inside-1_20_5" fill="white">
<path fill-rule="evenodd" clip-rule="evenodd" d="M175.653 196C265.867 196 339 152.124 339 98C339 43.8761 265.867 0 175.653 0C85.439 0 12.3061 43.8761 12.3061 98C12.3061 109.087 15.3749 119.744 21.0308 129.682L0 159.469H48.4259C78.3684 181.748 124.236 196 175.653 196Z"/>
</mask>
<path fill-rule="evenodd" clip-rule="evenodd" d="M175.653 196C265.867 196 339 152.124 339 98C339 43.8761 265.867 0 175.653 0C85.439 0 12.3061 43.8761 12.3061 98C12.3061 109.087 15.3749 119.744 21.0308 129.682L0 159.469H48.4259C78.3684 181.748 124.236 196 175.653 196Z" fill="white"/>
<path d="M21.0308 129.682L21.8477 130.259L22.2142 129.74L21.8999 129.188L21.0308 129.682ZM0 159.469L-0.816903 158.892L-1.93019 160.469H0V159.469ZM48.4259 159.469L49.0229 158.666L48.7571 158.469H48.4259V159.469ZM338 98C338 124.573 320.042 148.801 290.642 166.439C261.262 184.065 220.61 195 175.653 195V197C220.91 197 261.931 185.997 291.671 168.154C321.391 150.323 340 125.551 340 98H338ZM175.653 1C220.61 1 261.262 11.9346 290.642 29.561C320.042 47.1994 338 71.4273 338 98H340C340 70.4487 321.391 45.6766 291.671 27.846C261.931 10.0034 220.91 -1 175.653 -1V1ZM13.3061 98C13.3061 71.4273 31.264 47.1994 60.6638 29.561C90.0436 11.9346 130.696 1 175.653 1V-1C130.396 -1 89.375 10.0034 59.6349 27.846C29.9147 45.6766 11.3061 70.4487 11.3061 98H13.3061ZM21.8999 129.188C16.3208 119.384 13.3061 108.896 13.3061 98H11.3061C11.3061 109.278 14.4291 120.104 20.1617 130.177L21.8999 129.188ZM0.816903 160.046L21.8477 130.259L20.2139 129.105L-0.816903 158.892L0.816903 160.046ZM48.4259 158.469H0V160.469H48.4259V158.469ZM175.653 195C124.401 195 78.756 180.79 49.0229 158.666L47.829 160.271C77.9808 182.706 124.072 197 175.653 197V195Z" fill="black" mask="url(#path-1-inside-1_20_5)"/>
</svg>
