<svg width="478" height="478" viewBox="0 0 478 478" fill="none" xmlns="http://www.w3.org/2000/svg">
<mask id="path-1-inside-1_168_120" fill="white">
<path fill-rule="evenodd" clip-rule="evenodd" d="M239 478C370.996 478 478 370.996 478 239C478 107.004 370.996 0 239 0C107.004 0 0 107.004 0 239C0 370.996 107.004 478 239 478ZM236.5 365C306.364 365 363 308.364 363 238.5C363 168.636 306.364 112 236.5 112C166.636 112 110 168.636 110 238.5C110 308.364 166.636 365 236.5 365Z"/>
</mask>
<path fill-rule="evenodd" clip-rule="evenodd" d="M239 478C370.996 478 478 370.996 478 239C478 107.004 370.996 0 239 0C107.004 0 0 107.004 0 239C0 370.996 107.004 478 239 478ZM236.5 365C306.364 365 363 308.364 363 238.5C363 168.636 306.364 112 236.5 112C166.636 112 110 168.636 110 238.5C110 308.364 166.636 365 236.5 365Z" fill="#552CB8"/>
<path d="M477 239C477 370.444 370.444 477 239 477V479C371.548 479 479 371.548 479 239H477ZM239 1C370.444 1 477 107.556 477 239H479C479 106.452 371.548 -1 239 -1V1ZM1 239C1 107.556 107.556 1 239 1V-1C106.452 -1 -1 106.452 -1 239H1ZM239 477C107.556 477 1 370.444 1 239H-1C-1 371.548 106.452 479 239 479V477ZM362 238.5C362 307.812 305.812 364 236.5 364V366C306.916 366 364 308.916 364 238.5H362ZM236.5 113C305.812 113 362 169.188 362 238.5H364C364 168.084 306.916 111 236.5 111V113ZM111 238.5C111 169.188 167.188 113 236.5 113V111C166.084 111 109 168.084 109 238.5H111ZM236.5 364C167.188 364 111 307.812 111 238.5H109C109 308.916 166.084 366 236.5 366V364Z" fill="black" mask="url(#path-1-inside-1_168_120)"/>
</svg>
