<svg width="101" height="97" viewBox="0 0 101 97" fill="none" xmlns="http://www.w3.org/2000/svg">
<path d="M10.9323 46.5995C10.6851 47.0738 9.96616 46.8812 9.9893 46.3468L11.4041 13.684C11.4179 13.3644 11.7241 13.1399 12.033 13.2227L25.7244 16.8913C26.0334 16.9741 26.1862 17.3216 26.0385 17.6053L10.9323 46.5995Z" fill="#FD5A47" stroke="black"/>
<path d="M41.1281 58.5926C40.6769 58.8799 40.1505 58.3535 40.4378 57.9023L57.9944 30.3229C58.1662 30.0531 58.5436 30.0117 58.7698 30.2378L68.7926 40.2607C69.0187 40.4868 68.9773 40.8642 68.7075 41.036L41.1281 58.5926Z" fill="#FD5A47" stroke="black"/>
<path d="M54.6532 86.6062C54.1188 86.6293 53.9261 85.9104 54.4005 85.6632L83.3947 70.557C83.6784 70.4093 84.0259 70.5621 84.1087 70.8711L87.7773 84.5625C87.8601 84.8714 87.6355 85.1776 87.316 85.1914L54.6532 86.6062Z" fill="#FD5A47" stroke="black"/>
</svg>
