<svg width="216" height="57" viewBox="0 0 216 57" fill="none" xmlns="http://www.w3.org/2000/svg">
<path d="M194.006 20.9236L195.461 22.9563L194.006 20.9236ZM215.919 7.4082C216.144 6.04601 215.223 4.75899 213.861 4.53354L191.663 0.859706C190.301 0.634261 189.014 1.55577 188.788 2.91795C188.563 4.28013 189.484 5.56716 190.846 5.7926L210.578 9.05824L207.312 28.7898C207.087 30.152 208.008 31.439 209.371 31.6645C210.733 31.8899 212.02 30.9684 212.245 29.6062L215.919 7.4082ZM195.461 22.9563L214.908 9.03268L211.997 4.9673L192.551 18.8909L195.461 22.9563ZM0.718402 31.0551C61.4666 67.3255 137.935 64.1454 195.461 22.9563L192.551 18.8909C136.641 58.9223 62.3222 62.0129 3.2816 26.7621L0.718402 31.0551Z" fill="black"/>
</svg>
