<svg width="104" height="104" viewBox="0 0 104 104" fill="none" xmlns="http://www.w3.org/2000/svg">
<mask id="path-1-inside-1_38_485" fill="white">
<path fill-rule="evenodd" clip-rule="evenodd" d="M4.56021 29.7919L61.5876 0C85.7265 4.49921 104 25.6746 104 51.118C104 79.8368 80.7188 103.118 52 103.118C23.2812 103.118 0 79.8368 0 51.118C0 43.5183 1.63029 36.2993 4.56021 29.7919Z"/>
</mask>
<path fill-rule="evenodd" clip-rule="evenodd" d="M4.56021 29.7919L61.5876 0C85.7265 4.49921 104 25.6746 104 51.118C104 79.8368 80.7188 103.118 52 103.118C23.2812 103.118 0 79.8368 0 51.118C0 43.5183 1.63029 36.2993 4.56021 29.7919Z" fill="#FDA543"/>
<path d="M4.56021 29.7919L4.09718 28.9055L3.79045 29.0658L3.64837 29.3813L4.56021 29.7919ZM61.5876 0L61.7709 -0.983069L61.431 -1.04641L61.1246 -0.88634L61.5876 0ZM5.02325 30.6782L62.0507 0.88634L61.1246 -0.88634L4.09718 28.9055L5.02325 30.6782ZM61.4044 0.983069C85.0785 5.39565 103 26.165 103 51.118H105C105 25.1842 86.3745 3.60278 61.7709 -0.983069L61.4044 0.983069ZM103 51.118C103 79.2845 80.1665 102.118 52 102.118V104.118C81.2711 104.118 105 80.389 105 51.118H103ZM52 102.118C23.8335 102.118 1 79.2845 1 51.118H-1C-1 80.389 22.7289 104.118 52 104.118V102.118ZM1 51.118C1 43.6626 2.59909 36.5834 5.47205 30.2024L3.64837 29.3813C0.661482 36.0153 -1 43.374 -1 51.118H1Z" fill="black" mask="url(#path-1-inside-1_38_485)"/>
<circle cx="41.3635" cy="40.4816" r="12.5" fill="white" stroke="black"/>
<circle cx="63.8181" cy="40.4816" r="12.5" fill="white" stroke="black"/>
<circle cx="36.0453" cy="41.0725" r="7.68182" fill="black"/>
<circle cx="58.4999" cy="41.0725" r="7.68182" fill="black"/>
<path d="M20.0908 55.8452V55.8452C20.4645 60.1931 26.8306 60.1949 27.1817 55.8452V55.8452" stroke="black" stroke-linecap="round"/>
<path d="M76.8181 55.8452V55.8452C77.1918 60.1931 83.5579 60.1949 83.909 55.8452V55.8452" stroke="black" stroke-linecap="round"/>
<mask id="path-9-inside-2_38_485" fill="white">
<path fill-rule="evenodd" clip-rule="evenodd" d="M4.7003 30.0381C7.80667 30.6232 11.0108 30.932 14.2862 30.9381C35.4052 30.9778 53.6073 18.422 61.7834 0.353369L4.7003 30.0381Z"/>
</mask>
<path fill-rule="evenodd" clip-rule="evenodd" d="M4.7003 30.0381C7.80667 30.6232 11.0108 30.932 14.2862 30.9381C35.4052 30.9778 53.6073 18.422 61.7834 0.353369L4.7003 30.0381Z" fill="#D9D9D9"/>
<path d="M4.7003 30.0381L4.23892 29.1509L1.67257 30.4855L4.51522 31.0209L4.7003 30.0381ZM61.7834 0.353369L62.6944 0.765626L63.8857 -1.86704L61.322 -0.533838L61.7834 0.353369ZM14.288 29.9382C11.0744 29.9321 7.93164 29.6291 4.88537 29.0554L4.51522 31.0209C7.68171 31.6172 10.9471 31.9319 14.2843 31.9381L14.288 29.9382ZM60.8723 -0.0588878C52.8525 17.6644 34.9994 29.977 14.288 29.9382L14.2843 31.9381C35.811 31.9785 54.3622 19.1795 62.6944 0.765626L60.8723 -0.0588878ZM61.322 -0.533838L4.23892 29.1509L5.16167 30.9254L62.2447 1.24058L61.322 -0.533838Z" fill="black" mask="url(#path-9-inside-2_38_485)"/>
<path fill-rule="evenodd" clip-rule="evenodd" d="M24.1062 59.2197C24.0118 58.9602 23.7248 58.8264 23.4654 58.9209C23.2059 59.0153 23.0721 59.3022 23.1665 59.5617C32.9906 86.5532 71.5287 86.776 80.8367 59.5525C80.9261 59.2912 80.7867 59.0069 80.5254 58.9176C80.2641 58.8283 79.9799 58.9676 79.8905 59.2289C70.9029 85.5154 33.6238 85.3691 24.1062 59.2197Z" fill="black"/>
</svg>
