<svg width="112" height="112" viewBox="0 0 112 112" fill="none" xmlns="http://www.w3.org/2000/svg">
<mask id="path-1-inside-1_57_943" fill="white">
<path d="M42.8916 11.0614C41.4705 6.18972 44.2724 1.00702 49.3108 0.400872C58.3933 -0.691804 67.6548 0.452155 76.2693 3.79698C87.7553 8.25676 97.4499 16.3802 103.851 26.9086C110.252 37.437 113.001 49.7825 111.674 62.0323C110.347 74.2821 105.017 85.7521 96.5093 94.6652C88.0019 103.578 76.7925 109.437 64.6178 111.333C52.4431 113.229 39.9829 111.057 29.1679 105.153C18.3529 99.2495 9.78696 89.9437 4.79727 78.6777C1.055 70.2283 -0.518905 61.0301 0.149733 51.9066C0.520653 46.8454 5.56729 43.8053 10.4999 44.998C15.4325 46.1907 18.3426 51.1883 18.3781 56.2629C18.414 61.3899 19.4978 66.4887 21.6002 71.2357C24.9525 78.8045 30.7074 85.0565 37.9733 89.0229C45.2392 92.9892 53.6103 94.4485 61.7897 93.1746C69.9691 91.9007 77.5 87.9648 83.2155 81.9766C88.9311 75.9885 92.5121 68.2825 93.4038 60.0527C94.2955 51.8229 92.4481 43.5287 88.1478 36.4554C83.8475 29.382 77.3343 23.9244 69.6176 20.9282C64.7779 19.049 59.6342 18.2039 54.5111 18.4067C49.4403 18.6075 44.3127 15.9331 42.8916 11.0614Z"/>
</mask>
<path d="M42.8916 11.0614C41.4705 6.18972 44.2724 1.00702 49.3108 0.400872C58.3933 -0.691804 67.6548 0.452155 76.2693 3.79698C87.7553 8.25676 97.4499 16.3802 103.851 26.9086C110.252 37.437 113.001 49.7825 111.674 62.0323C110.347 74.2821 105.017 85.7521 96.5093 94.6652C88.0019 103.578 76.7925 109.437 64.6178 111.333C52.4431 113.229 39.9829 111.057 29.1679 105.153C18.3529 99.2495 9.78696 89.9437 4.79727 78.6777C1.055 70.2283 -0.518905 61.0301 0.149733 51.9066C0.520653 46.8454 5.56729 43.8053 10.4999 44.998C15.4325 46.1907 18.3426 51.1883 18.3781 56.2629C18.414 61.3899 19.4978 66.4887 21.6002 71.2357C24.9525 78.8045 30.7074 85.0565 37.9733 89.0229C45.2392 92.9892 53.6103 94.4485 61.7897 93.1746C69.9691 91.9007 77.5 87.9648 83.2155 81.9766C88.9311 75.9885 92.5121 68.2825 93.4038 60.0527C94.2955 51.8229 92.4481 43.5287 88.1478 36.4554C83.8475 29.382 77.3343 23.9244 69.6176 20.9282C64.7779 19.049 59.6342 18.2039 54.5111 18.4067C49.4403 18.6075 44.3127 15.9331 42.8916 11.0614Z" fill="#FC7DA8" stroke="black" stroke-width="2" mask="url(#path-1-inside-1_57_943)"/>
</svg>
