<svg width="288" height="288" viewBox="0 0 288 288" fill="none" xmlns="http://www.w3.org/2000/svg">
<mask id="path-1-inside-1_213_5" fill="white">
<path fill-rule="evenodd" clip-rule="evenodd" d="M144 288C223.529 288 288 223.529 288 144C288 64.471 223.529 0 144 0C64.471 0 0 64.471 0 144C0 223.529 64.471 288 144 288ZM142.494 219.916C184.588 219.916 218.711 185.793 218.711 143.699C218.711 101.605 184.588 67.4812 142.494 67.4812C100.4 67.4812 66.2762 101.605 66.2762 143.699C66.2762 185.793 100.4 219.916 142.494 219.916Z"/>
</mask>
<path fill-rule="evenodd" clip-rule="evenodd" d="M144 288C223.529 288 288 223.529 288 144C288 64.471 223.529 0 144 0C64.471 0 0 64.471 0 144C0 223.529 64.471 288 144 288ZM142.494 219.916C184.588 219.916 218.711 185.793 218.711 143.699C218.711 101.605 184.588 67.4812 142.494 67.4812C100.4 67.4812 66.2762 101.605 66.2762 143.699C66.2762 185.793 100.4 219.916 142.494 219.916Z" fill="#552CB8"/>
<path d="M287 144C287 222.977 222.977 287 144 287V289C224.081 289 289 224.081 289 144H287ZM144 1C222.977 1 287 65.0233 287 144H289C289 63.9187 224.081 -1 144 -1V1ZM1 144C1 65.0233 65.0233 1 144 1V-1C63.9187 -1 -1 63.9187 -1 144H1ZM144 287C65.0233 287 1 222.977 1 144H-1C-1 224.081 63.9187 289 144 289V287ZM217.711 143.699C217.711 185.24 184.035 218.916 142.494 218.916V220.916C185.14 220.916 219.711 186.345 219.711 143.699H217.711ZM142.494 68.4812C184.035 68.4812 217.711 102.157 217.711 143.699H219.711C219.711 101.053 185.14 66.4812 142.494 66.4812V68.4812ZM67.2762 143.699C67.2762 102.157 100.952 68.4812 142.494 68.4812V66.4812C99.8476 66.4812 65.2762 101.053 65.2762 143.699H67.2762ZM142.494 218.916C100.952 218.916 67.2762 185.24 67.2762 143.699H65.2762C65.2762 186.345 99.8476 220.916 142.494 220.916V218.916Z" fill="black" mask="url(#path-1-inside-1_213_5)"/>
</svg>
