<svg width="124" height="123" viewBox="0 0 124 123" fill="none" xmlns="http://www.w3.org/2000/svg">
<mask id="path-1-inside-1_246_316" fill="white">
<path fill-rule="evenodd" clip-rule="evenodd" d="M5.43737 35.5207L73.4309 0C102.212 5.36427 124 30.6119 124 60.9484C124 95.1901 96.2417 122.948 62 122.948C27.7583 122.948 0 95.1901 0 60.9484C0 51.8871 1.94388 43.2798 5.43737 35.5207Z"/>
</mask>
<path fill-rule="evenodd" clip-rule="evenodd" d="M5.43737 35.5207L73.4309 0C102.212 5.36427 124 30.6119 124 60.9484C124 95.1901 96.2417 122.948 62 122.948C27.7583 122.948 0 95.1901 0 60.9484C0 51.8871 1.94388 43.2798 5.43737 35.5207Z" fill="#FDA543"/>
<path d="M5.43737 35.5207L4.97433 34.6344L4.66761 34.7946L4.52553 35.1102L5.43737 35.5207ZM73.4309 0L73.6142 -0.983071L73.2743 -1.04641L72.9679 -0.88634L73.4309 0ZM5.9004 36.4071L73.894 0.88634L72.9679 -0.88634L4.97433 34.6344L5.9004 36.4071ZM73.2477 0.983071C101.564 6.26071 123 31.1023 123 60.9484H125C125 30.1215 102.86 4.46783 73.6142 -0.983071L73.2477 0.983071ZM123 60.9484C123 94.6378 95.6894 121.948 62 121.948V123.948C96.7939 123.948 125 95.7424 125 60.9484H123ZM62 121.948C28.3106 121.948 1 94.6378 1 60.9484H-1C-1 95.7424 27.2061 123.948 62 123.948V121.948ZM1 60.9484C1 52.0314 2.91268 43.5638 6.34921 35.9313L4.52553 35.1102C0.975071 42.9957 -1 51.7428 -1 60.9484H1Z" fill="black" mask="url(#path-1-inside-1_246_316)"/>
<circle cx="49.3184" cy="48.2665" r="15" fill="white" stroke="black"/>
<circle cx="76.0918" cy="48.2665" r="15" fill="white" stroke="black"/>
<circle cx="42.9775" cy="48.9711" r="9.15909" fill="black"/>
<circle cx="69.7509" cy="48.9711" r="9.15909" fill="black"/>
<path d="M23.9546 66.5847V66.5847C24.4001 71.7687 31.9905 71.7709 32.4091 66.5847V66.5847" stroke="black" stroke-linecap="round"/>
<path d="M91.5918 66.5847V66.5847C92.0373 71.7687 99.6277 71.7709 100.046 66.5847V66.5847" stroke="black" stroke-linecap="round"/>
<mask id="path-9-inside-2_246_316" fill="white">
<path fill-rule="evenodd" clip-rule="evenodd" d="M5.60407 35.8147C9.30785 36.5122 13.1282 36.8805 17.0335 36.8878C42.2139 36.935 63.9165 21.9646 73.6648 0.421245L5.60407 35.8147Z"/>
</mask>
<path fill-rule="evenodd" clip-rule="evenodd" d="M5.60407 35.8147C9.30785 36.5122 13.1282 36.8805 17.0335 36.8878C42.2139 36.935 63.9165 21.9646 73.6648 0.421245L5.60407 35.8147Z" fill="#D9D9D9"/>
<path d="M5.60407 35.8147L5.1427 34.9275L2.57635 36.2621L5.41899 36.7974L5.60407 35.8147ZM73.6648 0.421245L74.5759 0.833501L75.7671 -1.79916L73.2034 -0.465962L73.6648 0.421245ZM17.0353 35.8878C13.1918 35.8806 9.43282 35.5182 5.78915 34.832L5.41899 36.7974C9.18289 37.5063 13.0645 37.8804 17.0316 37.8878L17.0353 35.8878ZM72.7537 0.0089896C63.1617 21.2071 41.8081 35.9343 17.0353 35.8878L17.0316 37.8878C42.6197 37.9358 64.6713 22.7222 74.5759 0.833501L72.7537 0.0089896ZM73.2034 -0.465962L5.1427 34.9275L6.06544 36.7019L74.1262 1.30845L73.2034 -0.465962Z" fill="black" mask="url(#path-9-inside-2_246_316)"/>
<path fill-rule="evenodd" clip-rule="evenodd" d="M28.6516 70.641C28.5572 70.3815 28.2703 70.2477 28.0108 70.3422C27.7513 70.4366 27.6175 70.7235 27.7119 70.983C39.3958 103.084 85.224 103.343 96.2912 70.9738C96.3806 70.7125 96.2412 70.4282 95.9799 70.3389C95.7186 70.2496 95.4344 70.389 95.345 70.6502C84.5982 102.082 40.029 101.9 28.6516 70.641Z" fill="black"/>
</svg>
