<svg width="27" height="27" viewBox="0 0 27 27" fill="none" xmlns="http://www.w3.org/2000/svg">
<g clip-path="url(#clip0_248_439)">
<path d="M19.1269 1.01778L16.5745 3.57012L23.43 10.4256L25.9824 7.87325C27.3007 6.55489 27.3007 4.41914 25.9824 3.10078L23.9046 1.01778C22.5863 -0.300583 20.4505 -0.300583 19.1322 1.01778H19.1269ZM15.3827 4.76192L3.09036 17.0596C2.54192 17.608 2.14114 18.2883 1.91965 19.0318L0.0528572 25.3758C-0.0789788 25.824 0.0423103 26.3039 0.369263 26.6309C0.696217 26.9578 1.1761 27.0791 1.61907 26.9525L7.96301 25.0857C8.70657 24.8643 9.38684 24.4635 9.93528 23.915L22.2382 11.6174L15.3827 4.76192Z" fill="#048CD6"/>
</g>
<defs>
<clipPath id="clip0_248_439">
<rect width="27" height="27" fill="white"/>
</clipPath>
</defs>
</svg>
